<svg xmlns="http://www.w3.org/2000/svg" viewBox="0 0 1024 1024" role="img" aria-label="CSE Buddy icon">
  <defs>
    <linearGradient id="bg" x1="0%" y1="0%" x2="100%" y2="100%">
      <stop offset="0%" stop-color="#ff8a5c" />
      <stop offset="100%" stop-color="#ff6c37" />
    </linearGradient>
    <linearGradient id="card" x1="0%" y1="0%" x2="100%" y2="100%">
      <stop offset="0%" stop-color="#ffffff" stop-opacity="0.98" />
      <stop offset="100%" stop-color="#f4f7fb" stop-opacity="0.96" />
    </linearGradient>
  </defs>

  <rect x="88" y="88" width="848" height="848" rx="220" fill="url(#bg)" />
  <rect x="224" y="216" width="576" height="592" rx="96" fill="url(#card)" />

  <circle cx="512" cy="384" r="96" fill="#ff6c37" />
  <path
    d="M392 560c0-24 19-44 43-44h154c24 0 43 20 43 44v38c0 24-19 44-43 44H435c-24 0-43-20-43-44z"
    fill="#2b3038"
  />
  <path
    d="M352 700c0-22 18-40 40-40h240c22 0 40 18 40 40s-18 40-40 40H392c-22 0-40-18-40-40z"
    fill="#cfd7e3"
  />
</svg>
